<?xml version="1.0" encoding="UTF-8" standalone="no"?>
<!-- Created with Inkscape (http://www.inkscape.org/) -->

<svg
   xmlns:dc="http://purl.org/dc/elements/1.1/"
   xmlns:cc="http://creativecommons.org/ns#"
   xmlns:rdf="http://www.w3.org/1999/02/22-rdf-syntax-ns#"
   xmlns:svg="http://www.w3.org/2000/svg"
   xmlns="http://www.w3.org/2000/svg"
   xmlns:sodipodi="http://sodipodi.sourceforge.net/DTD/sodipodi-0.dtd"
   xmlns:inkscape="http://www.inkscape.org/namespaces/inkscape"
   width="20.527342mm"
   height="27.35033mm"
   viewBox="0 0 20.527342 27.35033"
   version="1.1"
   id="svg8"
   sodipodi:docname="Iniciales.svg"
   inkscape:version="0.92.2 5c3e80d, 2017-08-06">
  <defs
     id="defs2" />
  <sodipodi:namedview
     id="base"
     pagecolor="#ffffff"
     bordercolor="#666666"
     borderopacity="1.0"
     inkscape:pageopacity="0.0"
     inkscape:pageshadow="2"
     inkscape:zoom="2.8"
     inkscape:cx="28.191959"
     inkscape:cy="31.254095"
     inkscape:document-units="mm"
     inkscape:current-layer="layer1"
     showgrid="true"
     showguides="true"
     inkscape:guide-bbox="true"
     inkscape:snap-global="false"
     fit-margin-top="0"
     fit-margin-left="0"
     fit-margin-right="0"
     fit-margin-bottom="0"
     inkscape:window-width="1366"
     inkscape:window-height="722"
     inkscape:window-x="0"
     inkscape:window-y="24"
     inkscape:window-maximized="1">
    <inkscape:grid
       type="xygrid"
       id="grid870"
       originx="202.27539"
       originy="-214.15552" />
  </sodipodi:namedview>
  <metadata
     id="metadata5">
    <rdf:RDF>
      <cc:Work
         rdf:about="">
        <dc:format>image/svg+xml</dc:format>
        <dc:type
           rdf:resource="http://purl.org/dc/dcmitype/StillImage" />
        <dc:title></dc:title>
      </cc:Work>
    </rdf:RDF>
  </metadata>
  <g
     inkscape:label="Capa 1"
     inkscape:groupmode="layer"
     id="layer1"
     transform="translate(202.27539,-55.494141)">
    <path
       style="color:#000000;clip-rule:nonzero;display:inline;overflow:visible;visibility:visible;opacity:1;isolation:auto;mix-blend-mode:normal;color-interpolation:sRGB;color-interpolation-filters:linearRGB;solid-color:#000000;solid-opacity:1;fill:#ffffff;fill-opacity:1;fill-rule:nonzero;stroke:none;stroke-width:1.2017374;stroke-linecap:round;stroke-linejoin:miter;stroke-miterlimit:4;stroke-dasharray:none;stroke-dashoffset:0;stroke-opacity:1;paint-order:normal;color-rendering:auto;image-rendering:auto;shape-rendering:auto;text-rendering:auto;enable-background:accumulate"
       d="m -201.58803,56.123337 h 19.31022 v 17.973877 h -19.31022 z"
       id="rect887"
       inkscape:connector-curvature="0" />
    <path
       style="color:#000000;clip-rule:nonzero;display:inline;overflow:visible;visibility:visible;opacity:1;isolation:auto;mix-blend-mode:normal;color-interpolation:sRGB;color-interpolation-filters:linearRGB;solid-color:#000000;solid-opacity:1;fill:#000000;fill-opacity:1;fill-rule:nonzero;stroke:none;stroke-width:1.1815387;stroke-linecap:round;stroke-linejoin:miter;stroke-miterlimit:4;stroke-dasharray:none;stroke-dashoffset:0;stroke-opacity:1;paint-order:normal;color-rendering:auto;image-rendering:auto;shape-rendering:auto;text-rendering:auto;enable-background:accumulate"
       d="m -202.27539,55.494141 v 0.595312 26.754955 h 20.52743 V 55.494141 Z m 1.20096,1.192175 h 18.12344 v 16.74058 h -18.12344 z"
       id="rect874"
       inkscape:connector-curvature="0" />
    <g
       aria-label="V"
       transform="matrix(0.26458333,0,0,0.26458333,2.834821,8.1264881)"
       style="font-style:normal;font-variant:normal;font-weight:normal;font-stretch:normal;font-size:66.66666412px;line-height:25px;font-family:C059;-inkscape-font-specification:'C059, Normal';font-variant-ligatures:normal;font-variant-caps:normal;font-variant-numeric:normal;font-feature-settings:normal;text-align:start;letter-spacing:0px;word-spacing:0px;writing-mode:lr-tb;text-anchor:start;fill:#000000;fill-opacity:1;stroke:none;stroke-width:1px;stroke-linecap:butt;stroke-linejoin:miter;stroke-opacity:1"
       id="flowRoot829">
      <path
         d="m -746.96094,253.40039 v 3.13281 h 1.33203 c 3.06667,0.0667 4.06811,0.80104 5.13477,3.73438 l 2.4082,6.03515 c 1.18912,0.29845 2.49561,0.44922 4.00977,0.44922 1.73585,0 2.96835,-0.13986 4.01367,-0.48828 l -2.36523,-5.99609 c -0.33333,-0.86667 -0.53321,-1.73308 -0.53321,-2.06641 0,-1.2 1.13282,-1.66797 4.13282,-1.66797 h 2.66601 v -0.73828 c -0.31373,-0.40278 -0.68497,-0.77714 -1.13086,-1.11914 0,0 0,-0.002 0,-0.002 -0.6402,-0.48775 -0.78887,-0.59766 -1.53125,-0.86328 -0.31269,-0.11188 -0.8073,-0.25307 -1.36914,-0.41016 z m 31.19922,0 v 3.13281 h 1.26758 c 3.4,0 5.39844,1.33347 5.39844,3.4668 0,0.93333 -0.33216,2.40105 -0.79883,3.73438 l -10.33399,27.46679 -7.20703,-18.27734 c -1.97662,0.58047 -4.13107,0.89648 -6.43945,0.89648 -0.4216,0 -0.82079,-0.0228 -1.22656,-0.0391 l 11.47265,28.75195 h 2.66797 l 15.33203,-39.46679 c 2,-5.19999 3.40091,-6.39987 7.26758,-6.53321 h 0.66602 v -3.13281 z"
         transform="translate(-10.714284,-30.714286)"
         id="path892"
         inkscape:connector-curvature="0" />
    </g>
    <g
       aria-label="S"
       style="font-style:normal;font-variant:normal;font-weight:normal;font-stretch:normal;font-size:17.63888741px;line-height:6.61458302px;font-family:C059;-inkscape-font-specification:'C059, Normal';font-variant-ligatures:normal;font-variant-caps:normal;font-variant-numeric:normal;font-feature-settings:normal;text-align:start;letter-spacing:0px;word-spacing:0px;writing-mode:lr-tb;text-anchor:start;fill:#000000;fill-opacity:1;stroke:none;stroke-width:0.26458332px;stroke-linecap:butt;stroke-linejoin:miter;stroke-opacity:1"
       id="flowRoot815">
      <path
         d="m -190.69729,58.812613 h -0.65264 l -0.70556,1.058334 c -0.84666,-0.79375 -1.95791,-1.217084 -3.21027,-1.217084 -2.32834,0 -3.86292,1.464028 -3.86292,3.686528 0,1.922639 0.9525,2.875138 3.54542,3.545416 l 1.67569,0.423333 c 1.30528,0.335139 1.42875,0.370417 1.79917,0.652639 0.52916,0.405695 0.81139,0.987778 0.81139,1.675695 0,0.705555 -0.26459,1.287638 -0.79375,1.781527 -0.58209,0.493889 -1.16417,0.687917 -2.13431,0.687917 -1.30528,0 -2.24014,-0.405695 -3.06917,-1.322917 -0.74083,-0.811389 -1.11125,-1.658055 -1.37583,-3.016249 h -0.75847 l 0.0705,5.027082 h 0.68792 l 0.79375,-1.199444 c 1.18181,0.970139 2.15194,1.322917 3.70417,1.322917 2.59291,0 4.25097,-1.516945 4.25097,-3.880556 0,-1.111249 -0.35278,-2.028472 -1.05833,-2.698749 -0.47625,-0.458611 -1.16417,-0.758473 -2.57528,-1.11125 l -1.88736,-0.47625 c -1.56986,-0.405695 -2.3107,-1.093611 -2.3107,-2.169583 0,-1.234722 1.00542,-2.081389 2.50472,-2.081389 1.23473,0 2.24014,0.529167 2.9457,1.534583 0.51153,0.723194 0.84667,1.464028 1.05833,2.363611 h 0.75847 z"
         style="stroke-width:0.26458332px"
         id="path953"
         inkscape:connector-curvature="0" />
    </g>
    <g
       aria-label="S"
       transform="scale(0.26458333)"
       style="font-style:normal;font-variant:normal;font-weight:normal;font-stretch:normal;font-size:66.66666412px;line-height:25px;font-family:C059;-inkscape-font-specification:'C059, Normal';font-variant-ligatures:normal;font-variant-caps:normal;font-variant-numeric:normal;font-feature-settings:normal;text-align:start;letter-spacing:0px;word-spacing:0px;writing-mode:lr-tb;text-anchor:start;fill:#000000;fill-opacity:1;stroke:#ffffff;stroke-width:4;stroke-linecap:butt;stroke-linejoin:miter;stroke-miterlimit:4;stroke-dasharray:none;stroke-opacity:1"
       id="flowRoot864" />
    <path
       style="font-style:normal;font-variant:normal;font-weight:normal;font-stretch:normal;font-size:66.66666412px;line-height:25px;font-family:C059;-inkscape-font-specification:'C059, Normal';font-variant-ligatures:normal;font-variant-caps:normal;font-variant-numeric:normal;font-feature-settings:normal;text-align:start;letter-spacing:0px;word-spacing:0px;writing-mode:lr-tb;text-anchor:start;fill:#fde9e9;fill-opacity:1;stroke:none;stroke-width:0.26458332px;stroke-linecap:butt;stroke-linejoin:miter;stroke-opacity:1"
       d="m -194.10081,73.427041 2.64067,6.6182 h 0.7059 l 2.5709,-6.6182 h -1.01493 l -1.36219,3.619934 -1.42782,-3.619934 z"
       id="flowRoot882"
       inkscape:connector-curvature="0" />
  </g>
</svg>
